<?xml version="1.0" encoding="UTF-8" standalone="no"?>
<!-- Created with Inkscape (http://www.inkscape.org/) -->

<svg
   width="210mm"
   height="297mm"
   viewBox="0 0 210 297"
   version="1.1"
   id="svg5"
   inkscape:version="1.2.1 (9c6d41e410, 2022-07-14)"
   sodipodi:docname="red-splatter.svg"
   xmlns:inkscape="http://www.inkscape.org/namespaces/inkscape"
   xmlns:sodipodi="http://sodipodi.sourceforge.net/DTD/sodipodi-0.dtd"
   xmlns="http://www.w3.org/2000/svg"
   xmlns:svg="http://www.w3.org/2000/svg">
  <sodipodi:namedview
     id="namedview7"
     pagecolor="#ffffff"
     bordercolor="#000000"
     borderopacity="0.25"
     inkscape:showpageshadow="2"
     inkscape:pageopacity="0.0"
     inkscape:pagecheckerboard="0"
     inkscape:deskcolor="#d1d1d1"
     inkscape:document-units="mm"
     showgrid="false"
     inkscape:zoom="0.74564394"
     inkscape:cx="806.01473"
     inkscape:cy="545.83693"
     inkscape:window-width="1920"
     inkscape:window-height="1017"
     inkscape:window-x="-8"
     inkscape:window-y="-8"
     inkscape:window-maximized="1"
     inkscape:current-layer="layer1" />
  <defs
     id="defs2" />
  <g
     inkscape:label="Layer 1"
     inkscape:groupmode="layer"
     id="layer1">
    <g
       id="g512"
       style="fill:#ff0000">
      <g
         id="g454"
         style="fill:#ff0000">
        <path
           id="path439"
           style="fill:#ff0000;stroke-width:0.264583"
           d="m 206.51611,179.54839 c -3.54839,23.87939 -22.48955,-21.78771 -29.35608,-18.01906 -4.08875,2.24409 -6.33053,-11.03812 -11.25475,-10.03283 -18.63712,3.80484 -7.49141,42.60361 -24.30417,51.63021 -16.81276,9.02661 -25.79328,-34.93316 -33.73015,-34.93316 -7.936866,0 -23.659332,32.60493 -44.730156,28.19123 -21.070824,-4.4137 9.284188,-38.74925 4.082921,-43.46892 -5.201268,-4.71966 5.492799,-17.43635 2.583957,-23.67685 C 66.89884,122.99852 47.903219,122.52455 29.806444,112.83871 11.709669,103.15287 51.995615,101.96922 54.904457,95.728731 57.813299,89.48824 57.054715,100.54574 32.449531,68.858333 7.8443465,37.170922 82.716228,90.083025 87.269837,84.292641 92.299835,77.896478 102.78292,68.373806 107.87096,63.870968 c 5.94359,-5.259992 36.43354,-44.217235 37.98822,-30.320261 1.55469,13.896974 -5.69607,33.470079 2.65901,45.597952 5.19866,7.546152 55.76458,-33.376889 25.80313,9.4833 -28.59378,74.989761 35.74317,67.037041 32.19479,90.916431 z"
           sodipodi:nodetypes="zcazszsszszsszscz" />
      </g>
      <ellipse
         style="fill:#ff0000;stroke-width:0.264583"
         id="path442"
         cx="56.951611"
         cy="36.548386"
         rx="7.983871"
         ry="7.4516129" />
      <ellipse
         style="fill:#ff0000;stroke-width:0.264583"
         id="path444"
         cx="202.25807"
         cy="52.161289"
         rx="6.032258"
         ry="7.4516129" />
    </g>
  </g>
</svg>
